# xmcd
#
# Track frame offsets: 
#        150
#        22264
#        37581
#        51233
#        65077
#        68700
#        76710
#        87227
#        106628
#        124223
#        187001
#        202628
#        231612
#        243335
#        257097
#        271533
#        281305
#        301692
#
# Disc length: 4207 seconds
#
# Revision: 0
# Processed by: cddbd v1.5.2PL0 Copyright (c) Steve Scherf et al.
# Submitted via: ExactAudioCopy v0.90b4
#
DISCID=e7106d12
DTITLE=Doctor Feelgood - Looking Back
DYEAR=2006
DGENRE=Blues
TTITLE0=Lee Brilleaux talk
TTITLE1=Route 66
TTITLE2=Lee Brilleaux
TTITLE3=Keep it out if Sight
TTITLE4=Lee Brilleaux
TTITLE5=Lee Brilleaux and Wilko
TTITLE6=Homework
TTITLE7=You Upset Me Baby
TTITLE8=Down at the (other) Doctors
TTITLE9=Dr Feelgood
TTITLE10=Dont take but a few minutes
TTITLE11=Lee Brilleaux talk
TTITLE12=Eileen
TTITLE13=A touch of class
TTITLE14=She got her eyes on you
TTITLE15=Lee Brilleaux
TTITLE16=Solitary Blues
TTITLE17=Looking at You
EXTD=
EXTT0=
EXTT1=
EXTT2=
EXTT3=
EXTT4=
EXTT5=
EXTT6=
EXTT7=
EXTT8=
EXTT9=
EXTT10=
EXTT11=
EXTT12=
EXTT13=
EXTT14=
EXTT15=
EXTT16=
EXTT17=
PLAYORDER=
